<svg width="16" height="16" viewBox="0 0 16 16" fill="none" xmlns="http://www.w3.org/2000/svg">
<path fill-rule="evenodd" clip-rule="evenodd" d="M0.833374 4.66665C0.833374 2.54955 2.54962 0.833313 4.66671 0.833313H11.3334C13.4505 0.833313 15.1667 2.54955 15.1667 4.66665V11.3333C15.1667 13.4504 13.4505 15.1666 11.3334 15.1666H4.66671C2.54962 15.1666 0.833374 13.4504 0.833374 11.3333V4.66665ZM4.66671 1.83331C3.1019 1.83331 1.83337 3.10184 1.83337 4.66665V11.3333C1.83337 12.8981 3.1019 14.1666 4.66671 14.1666H11.3334C12.8982 14.1666 14.1667 12.8981 14.1667 11.3333V4.66665C14.1667 3.10184 12.8982 1.83331 11.3334 1.83331H4.66671Z" fill="#EE4C5F"/>
<path fill-rule="evenodd" clip-rule="evenodd" d="M8 8.33337C7.72386 8.33337 7.5 8.10952 7.5 7.83337L7.5 5.16671C7.5 4.89057 7.72386 4.66671 8 4.66671C8.27614 4.66671 8.5 4.89057 8.5 5.16671L8.5 7.83337C8.5 8.10952 8.27614 8.33337 8 8.33337Z" fill="#EE4C5F"/>
<path fill-rule="evenodd" clip-rule="evenodd" d="M8 10.6667C8.27614 10.6667 8.5 10.4428 8.5 10.1667L8.5 9.83335C8.5 9.55721 8.27614 9.33335 8 9.33335C7.72386 9.33335 7.5 9.55721 7.5 9.83335L7.5 10.1667C7.5 10.4428 7.72386 10.6667 8 10.6667Z" fill="#EE4C5F"/>
</svg>
